<svg width="143" height="137" viewBox="0 0 143 137" fill="none" xmlns="http://www.w3.org/2000/svg">
<path d="M142.258 51.5574C141.46 49.1019 139.338 47.3121 136.783 46.9408L95.7349 40.9762L77.3779 3.78093C76.2351 1.46562 73.8769 0 71.2952 0C68.7135 0 66.3552 1.46561 65.2125 3.78139L46.8555 40.9766L5.80786 46.9413C3.25287 47.3125 1.12974 49.1024 0.332041 51.5579C-0.465658 54.0134 0.199998 56.709 2.04864 58.5111L31.7512 87.4634L24.7392 128.345C24.3028 130.89 25.3488 133.462 27.4375 134.979C29.5268 136.497 32.2956 136.697 34.5811 135.496L71.2952 116.194L108.009 135.496C110.312 136.706 113.079 136.486 115.153 134.979C117.242 133.462 118.288 130.89 117.852 128.345L110.84 87.4634L140.542 58.5111C142.39 56.7086 143.056 54.0129 142.258 51.5574Z" fill="url(#paint0_radial_2283_13651)"/>
<defs>
<radialGradient id="paint0_radial_2283_13651" cx="0" cy="0" r="1" gradientUnits="userSpaceOnUse" gradientTransform="translate(45.2959 122.646) rotate(-62.9044) scale(120.753 126.349)">
<stop stop-color="#C4D1FF"/>
<stop offset="1" stop-color="#6D9FFF"/>
</radialGradient>
</defs>
</svg>
