<svg width="12" height="12" viewBox="0 0 12 12" fill="none" xmlns="http://www.w3.org/2000/svg">
<g clip-path="url(#clip0_2218_10166)">
<path d="M6.375 4.5C6.375 4.29289 6.20711 4.125 6 4.125C5.79289 4.125 5.625 4.29289 5.625 4.5L5.625 5.62501H4.5C4.29289 5.62501 4.125 5.79291 4.125 6.00001C4.125 6.20712 4.29289 6.37501 4.5 6.37501H5.625V7.5C5.625 7.70711 5.79289 7.875 6 7.875C6.20711 7.875 6.375 7.70711 6.375 7.5L6.375 6.37501H7.5C7.70711 6.37501 7.875 6.20712 7.875 6.00001C7.875 5.79291 7.70711 5.62501 7.5 5.62501H6.375V4.5Z" fill="#1AAF74"/>
<path fill-rule="evenodd" clip-rule="evenodd" d="M6 0.625C3.03147 0.625 0.625 3.03147 0.625 6C0.625 8.96853 3.03147 11.375 6 11.375C8.96853 11.375 11.375 8.96853 11.375 6C11.375 3.03147 8.96853 0.625 6 0.625ZM1.375 6C1.375 3.44568 3.44568 1.375 6 1.375C8.55432 1.375 10.625 3.44568 10.625 6C10.625 8.55432 8.55432 10.625 6 10.625C3.44568 10.625 1.375 8.55432 1.375 6Z" fill="#1AAF74"/>
</g>
<defs>
<clipPath id="clip0_2218_10166">
<rect width="12" height="12" fill="white"/>
</clipPath>
</defs>
</svg>
