<svg width="49" height="41" viewBox="0 0 49 41" fill="none" xmlns="http://www.w3.org/2000/svg">
<g filter="url(#filter0_d_2146_8521)">
<rect x="8.125" y="4.50439" width="32" height="20.3631" rx="1.86667" fill="url(#paint0_linear_2146_8521)"/>
<path d="M15.0595 16.8C14.9655 16.0008 14.3072 15.4836 13.555 15.4836C12.2386 15.4836 11.4863 17.0821 12.4736 18.0694L11.2042 20.6552C11.1572 20.6552 11.0632 20.6552 11.0162 20.6552C9.0415 20.6552 8.99448 23.6641 10.9691 23.6641C11.7684 23.6641 12.4266 23.0529 12.5207 22.2066C12.5677 21.7365 12.3326 21.2664 12.0505 21.0313L13.3669 18.4925C13.9311 18.5866 14.5893 18.3045 14.9184 17.7403L16.7521 18.2105C16.47 17.8343 16.1879 17.4582 15.9528 17.0351L15.0595 16.8Z" fill="url(#paint1_linear_2146_8521)"/>
<path d="M38.9903 6.0785C38.6612 5.84343 38.2851 5.70239 37.8619 5.79642C37.0627 5.89045 36.4515 6.64267 36.5455 7.48892C36.5925 7.95906 36.8276 8.33517 37.2037 8.57024L36.4045 11.3441C35.9813 11.3441 35.5582 11.5791 35.2761 11.9552C35.182 12.0963 35.088 12.2373 35.041 12.4254H32.8313V13.3657H35.088C35.1821 13.6478 35.3701 13.9298 35.6052 14.1179C35.8873 14.3059 36.2164 14.447 36.4985 14.447C36.9686 14.447 37.3918 14.2589 37.7209 13.8358C37.956 13.5067 38.097 13.1306 38.05 12.7075C38.003 12.2843 37.8149 11.9552 37.4858 11.7202C37.4388 11.7202 37.4388 11.6732 37.3918 11.6732L38.191 8.85233C39.5545 8.71129 40.1187 6.92476 38.9903 6.0785Z" fill="url(#paint2_linear_2146_8521)"/>
<path d="M23.6637 10.7816C22.9115 10.7816 22.3003 11.3928 22.3003 12.145V14.8718C22.3003 15.6241 22.9115 16.1882 23.6637 16.1882C24.416 16.1882 25.0272 15.577 25.0272 14.8718V12.145C24.9802 11.3458 24.369 10.7816 23.6637 10.7816Z" fill="url(#paint3_linear_2146_8521)"/>
<path d="M28.3174 14.825V10.3116C28.3174 9.55942 27.7062 8.94824 27.0009 8.94824C26.2487 8.94824 25.6375 9.55942 25.6375 10.3116V14.825C25.6375 15.5772 26.2487 16.1414 27.0009 16.1414C27.7062 16.1884 28.3174 15.5772 28.3174 14.825Z" fill="url(#paint4_linear_2146_8521)"/>
<path d="M20.3252 12.519C19.5729 12.519 18.9617 13.1302 18.9617 13.8824V14.8227C18.9617 15.575 19.5729 16.1391 20.3252 16.1391C21.0774 16.1391 21.6886 15.5279 21.6886 14.8227V13.8824C21.6886 13.1302 21.0774 12.519 20.3252 12.519Z" fill="url(#paint5_linear_2146_8521)"/>
<path d="M30.0102 20.3722C29.9161 20.1371 29.634 20.0431 29.399 20.1371L29.0228 20.3252L28.5527 19.2438C33.7244 15.6238 32.9251 7.20826 26.6721 4.76354C19.8078 2.17777 13.3196 9.13583 16.3756 15.8118C17.7861 18.9147 20.8421 20.7013 23.8981 20.7013C24.5093 20.7013 25.1676 20.6072 25.7788 20.4662L26.2489 21.5475L25.8728 21.7356C25.6377 21.8296 25.5437 22.1117 25.6377 22.3468L27.5654 26.625C28.1295 27.8474 29.54 28.4116 30.7624 27.8474C31.9848 27.2832 32.502 25.8258 31.9378 24.6034L30.0102 20.3722ZM17.2219 15.4357C14.542 9.51195 20.2779 3.3061 26.2489 5.6568C32.2199 7.96049 32.643 16.47 26.7661 19.1498C23.1929 20.7953 18.8675 19.1498 17.2219 15.4357ZM27.0952 21.1714L26.6721 20.1841C26.8601 20.1371 27.0482 20.0431 27.1892 19.9961C27.3773 19.902 27.5183 19.808 27.7064 19.761L28.1295 20.7483L27.0952 21.1714Z" fill="url(#paint6_linear_2146_8521)"/>
</g>
<defs>
<filter id="filter0_d_2146_8521" x="0.125" y="0.782122" width="48" height="39.8562" filterUnits="userSpaceOnUse" color-interpolation-filters="sRGB">
<feFlood flood-opacity="0" result="BackgroundImageFix"/>
<feColorMatrix in="SourceAlpha" type="matrix" values="0 0 0 0 0 0 0 0 0 0 0 0 0 0 0 0 0 0 127 0" result="hardAlpha"/>
<feOffset dy="4.57143"/>
<feGaussianBlur stdDeviation="4"/>
<feComposite in2="hardAlpha" operator="out"/>
<feColorMatrix type="matrix" values="0 0 0 0 0.494598 0 0 0 0 0.362934 0 0 0 0 0.770833 0 0 0 0.45 0"/>
<feBlend mode="normal" in2="BackgroundImageFix" result="effect1_dropShadow_2146_8521"/>
<feBlend mode="normal" in="SourceGraphic" in2="effect1_dropShadow_2146_8521" result="shape"/>
</filter>
<linearGradient id="paint0_linear_2146_8521" x1="24.125" y1="4.50439" x2="24.125" y2="24.8675" gradientUnits="userSpaceOnUse">
<stop stop-color="#7F42FF"/>
<stop offset="1" stop-color="#5721CC"/>
</linearGradient>
<linearGradient id="paint1_linear_2146_8521" x1="13.1318" y1="15.4836" x2="13.1318" y2="23.6641" gradientUnits="userSpaceOnUse">
<stop stop-color="#F8F8FF"/>
<stop offset="1" stop-color="#C0CEFF"/>
</linearGradient>
<linearGradient id="paint2_linear_2146_8521" x1="36.2121" y1="5.76697" x2="36.2121" y2="14.447" gradientUnits="userSpaceOnUse">
<stop stop-color="#F8F8FF"/>
<stop offset="1" stop-color="#C0CEFF"/>
</linearGradient>
<linearGradient id="paint3_linear_2146_8521" x1="23.6637" y1="10.7816" x2="23.6637" y2="16.1882" gradientUnits="userSpaceOnUse">
<stop stop-color="#F8F8FF"/>
<stop offset="1" stop-color="#C0CEFF"/>
</linearGradient>
<linearGradient id="paint4_linear_2146_8521" x1="26.9774" y1="8.94824" x2="26.9774" y2="16.1439" gradientUnits="userSpaceOnUse">
<stop stop-color="#F8F8FF"/>
<stop offset="1" stop-color="#C0CEFF"/>
</linearGradient>
<linearGradient id="paint5_linear_2146_8521" x1="20.3252" y1="12.519" x2="20.3252" y2="16.1391" gradientUnits="userSpaceOnUse">
<stop stop-color="#F8F8FF"/>
<stop offset="1" stop-color="#C0CEFF"/>
</linearGradient>
<linearGradient id="paint6_linear_2146_8521" x1="23.8824" y1="28.0669" x2="23.8824" y2="4.21069" gradientUnits="userSpaceOnUse">
<stop stop-color="#BFBEFF"/>
<stop offset="1" stop-color="#FFF1FF"/>
</linearGradient>
</defs>
</svg>
