<svg width="16" height="16" viewBox="0 0 16 16" fill="none" xmlns="http://www.w3.org/2000/svg">
<rect width="16" height="16" rx="4" fill="#1AAF74" fill-opacity="0.1"/>
<path d="M7.99856 10.8076C5.05292 10.8076 2.66602 9.92845 2.66602 8.84277V10.8076C2.66602 11.8934 5.05292 12.7726 7.99856 12.7726C10.945 12.7726 13.3327 11.8934 13.3327 10.8076V8.84277C13.3343 9.92845 10.9459 10.8076 7.99856 10.8076Z" fill="#1AAF74"/>
<path d="M7.99856 3.22852C5.05292 3.22852 2.66602 4.14961 2.66602 5.28687V7.34522C2.66602 8.48286 5.05292 9.40395 7.99856 9.40395C10.945 9.40395 13.3327 8.48286 13.3327 7.34522V5.28687C13.3343 4.14973 10.9459 3.22852 7.99856 3.22852ZM7.99856 6.83079C5.06878 6.83079 3.19932 5.91628 3.19932 5.28611C3.19932 4.6562 5.06891 3.74193 7.99856 3.74193C10.9298 3.74193 12.7994 4.6562 12.7994 5.28611C12.7994 5.91628 10.9306 6.83079 7.99856 6.83079Z" fill="#1AAF74"/>
</svg>
