<svg width="16" height="16" viewBox="0 0 16 16" fill="none" xmlns="http://www.w3.org/2000/svg">
<g clip-path="url(#clip0_2223_6042)">
<path fill-rule="evenodd" clip-rule="evenodd" d="M8.03296 0.833329H7.96712C7.5239 0.833306 7.14197 0.833285 6.83614 0.874402C6.50839 0.918468 6.19421 1.01784 5.93938 1.27267C5.68455 1.5275 5.58518 1.84168 5.54111 2.16944C5.49999 2.47526 5.50001 2.85718 5.50004 3.30042L5.50004 4.91868C5.34365 4.86341 5.17536 4.83333 5.00004 4.83333H3.00004C2.17161 4.83333 1.50004 5.50491 1.50004 6.33333V14.1667H1.33337C1.05723 14.1667 0.833374 14.3905 0.833374 14.6667C0.833374 14.9428 1.05723 15.1667 1.33337 15.1667H14.6667C14.9429 15.1667 15.1667 14.9428 15.1667 14.6667C15.1667 14.3905 14.9429 14.1667 14.6667 14.1667H14.5V9.66667C14.5 8.83824 13.8285 8.16667 13 8.16667H11C10.8247 8.16667 10.6564 8.19674 10.5 8.25202L10.5 3.30042C10.5001 2.85718 10.5001 2.47527 10.459 2.16944C10.4149 1.84168 10.3155 1.5275 10.0607 1.27267C9.80587 1.01784 9.49169 0.918468 9.16394 0.874402C8.85811 0.833285 8.47619 0.833306 8.03296 0.833329ZM13.5 14.1667V9.66667C13.5 9.39052 13.2762 9.16667 13 9.16667H11C10.7239 9.16667 10.5 9.39052 10.5 9.66667V14.1667H13.5ZM9.50004 14.1667V3.33333C9.50004 2.84779 9.49898 2.53394 9.46789 2.30268C9.43873 2.08581 9.39166 2.01784 9.35359 1.97978C9.31553 1.94172 9.24756 1.89464 9.03069 1.86548C8.79944 1.83439 8.48558 1.83333 8.00004 1.83333C7.5145 1.83333 7.20065 1.83439 6.96939 1.86548C6.75252 1.89464 6.68455 1.94172 6.64649 1.97978C6.60843 2.01784 6.56135 2.08581 6.53219 2.30268C6.5011 2.53394 6.50004 2.84779 6.50004 3.33333V14.1667H9.50004ZM5.50004 14.1667V6.33333C5.50004 6.05719 5.27618 5.83333 5.00004 5.83333H3.00004C2.7239 5.83333 2.50004 6.05719 2.50004 6.33333V14.1667H5.50004Z" fill="#1AAF74"/>
</g>
<defs>
<clipPath id="clip0_2223_6042">
<rect width="16" height="16" fill="white"/>
</clipPath>
</defs>
</svg>
