<svg width="138" height="156" viewBox="0 0 138 156" fill="none" xmlns="http://www.w3.org/2000/svg">
<path d="M87.3795 33.9132H50.5795C48.0391 33.9132 45.9795 36.9084 45.9795 40.6028V155.218H91.9795V40.6028C91.9795 36.9084 89.9199 33.9132 87.3795 33.9132Z" fill="url(#paint0_linear_2283_13595)"/>
<path d="M41.4 114H4.6C2.05957 114 0 115.012 0 116.261V155H46V116.261C46 115.012 43.9404 114 41.4 114Z" fill="url(#paint1_linear_2283_13595)"/>
<path d="M133.4 78H96.6C94.0596 78 92 79.9012 92 82.2463V155H138V82.2463C138 79.9012 135.94 78 133.4 78Z" fill="url(#paint2_linear_2283_13595)"/>
<path d="M69.4634 2.23828C70.5073 6.2717 72.2179 10.1078 74.5347 13.583C77.1223 17.4644 80.4148 20.8228 84.2378 23.4883C80.4146 26.1538 77.1223 29.513 74.5347 33.3945C72.2181 36.8695 70.5073 40.7052 69.4634 44.7383C68.4195 40.7052 66.7087 36.8695 64.3921 33.3945C61.8042 29.5126 58.5107 26.1539 54.687 23.4883C58.5105 20.8227 61.8042 17.4648 64.3921 13.583C66.7089 10.1078 68.4195 6.27168 69.4634 2.23828Z" fill="url(#paint3_radial_2283_13595)" stroke="white"/>
<defs>
<linearGradient id="paint0_linear_2283_13595" x1="75.3705" y1="33.8914" x2="75.3705" y2="155.217" gradientUnits="userSpaceOnUse">
<stop stop-color="#DCB2FF"/>
<stop offset="1" stop-color="#826DFF"/>
</linearGradient>
<linearGradient id="paint1_linear_2283_13595" x1="29.391" y1="114.093" x2="29.391" y2="155" gradientUnits="userSpaceOnUse">
<stop stop-color="#9597FF"/>
<stop offset="1" stop-color="#5FACFF"/>
</linearGradient>
<linearGradient id="paint2_linear_2283_13595" x1="103.848" y1="155.619" x2="88.3152" y2="80.7242" gradientUnits="userSpaceOnUse">
<stop stop-color="#FFD18E"/>
<stop offset="1" stop-color="#FFECD3"/>
</linearGradient>
<radialGradient id="paint3_radial_2283_13595" cx="0" cy="0" r="1" gradientUnits="userSpaceOnUse" gradientTransform="translate(69 46.8914) rotate(-92.8686) scale(49.954 33.3026)">
<stop stop-color="#FFF6EB"/>
<stop offset="1" stop-color="#FFC786"/>
</radialGradient>
</defs>
</svg>
