<svg width="25" height="24" viewBox="0 0 25 24" fill="none" xmlns="http://www.w3.org/2000/svg">
<path d="M20.8468 5.84107C20.8468 5.51749 20.5844 5.25516 20.2608 5.25516H12.688V4.58592C12.688 4.26234 12.4256 4 12.102 4C11.7784 4 11.5161 4.26234 11.5161 4.58592V5.25516H3.94315C3.61956 5.25516 3.35722 5.51749 3.35722 5.84107L3.35722 16.897H20.8468V5.84107ZM18.2129 9.48106L15.9535 11.7404C15.7752 11.9186 15.5029 11.963 15.2772 11.8501L13.3956 10.9093L11.4348 12.87C11.2565 13.0483 10.984 13.0926 10.7585 12.9798L8.87685 12.039L6.91607 13.9997C6.6872 14.2285 6.31622 14.2285 6.08743 13.9997C5.8586 13.7709 5.8586 13.3999 6.08743 13.1711L8.34681 10.9118C8.52517 10.7334 8.79763 10.6892 9.02314 10.802L10.9048 11.7428L12.8655 9.78211C13.0438 9.60383 13.3162 9.55946 13.5418 9.67235L15.4235 10.6131L17.3842 8.65246C17.613 8.42368 17.984 8.42368 18.2129 8.65246C18.4417 8.88128 18.4417 9.25228 18.2129 9.48106Z" fill="#AFB3BE"/>
<path d="M7.98854 19.9373C7.85171 20.2305 7.97846 20.5792 8.27174 20.716C8.56483 20.8528 8.91362 20.7261 9.05049 20.4328L10.7112 17.0559H9.41805L7.98854 19.9373Z" fill="#AFB3BE"/>
<path d="M15.3376 17.0557H14.0444L15.7129 20.4326C15.8498 20.7258 16.1985 20.8525 16.4916 20.7158C16.7849 20.5789 16.9117 20.2303 16.7748 19.937L15.3376 17.0557Z" fill="#AFB3BE"/>
<path d="M21.5141 16.8835H2.68593C2.36233 16.8835 2.09999 17.1459 2.09999 17.4695C2.09999 17.793 2.36233 18.0554 2.68593 18.0554H21.5141C21.8376 18.0554 22.1 17.793 22.1 17.4695C22.1 17.1459 21.8376 16.8835 21.5141 16.8835Z" fill="#6F767E"/>
</svg>
