<svg width="12" height="12" viewBox="0 0 12 12" fill="none" xmlns="http://www.w3.org/2000/svg">
<path fill-rule="evenodd" clip-rule="evenodd" d="M4.06801 0.801252C4.17778 0.976878 4.12439 1.20823 3.94876 1.318L1.94875 2.568C1.77312 2.67777 1.54177 2.62438 1.432 2.44875C1.32223 2.27312 1.37562 2.04177 1.55125 1.932L3.55126 0.682001C3.72689 0.572235 3.95825 0.625625 4.06801 0.801252ZM7.932 0.801251C8.04177 0.625625 8.27312 0.572235 8.44875 0.682001L10.4487 1.932C10.6244 2.04177 10.6778 2.27312 10.568 2.44875C10.4582 2.62438 10.2269 2.67777 10.0513 2.568L8.05125 1.318C7.87562 1.20823 7.82223 0.976877 7.932 0.801251ZM6 2.375C3.72183 2.375 1.875 4.22183 1.875 6.5C1.875 8.77818 3.72183 10.625 6 10.625C8.27817 10.625 10.125 8.77818 10.125 6.5C10.125 4.22183 8.27817 2.375 6 2.375ZM1.125 6.5C1.125 3.80761 3.30761 1.625 6 1.625C8.69239 1.625 10.875 3.80761 10.875 6.5C10.875 9.19239 8.69239 11.375 6 11.375C3.30761 11.375 1.125 9.19239 1.125 6.5ZM6 4.125C6.20711 4.125 6.375 4.29289 6.375 4.5V6.34467L7.51516 7.48484C7.66161 7.63128 7.66161 7.86872 7.51516 8.01517C7.36872 8.16161 7.13128 8.16161 6.98484 8.01517L5.73484 6.76517C5.66451 6.69484 5.625 6.59946 5.625 6.5V4.5C5.625 4.29289 5.79289 4.125 6 4.125Z" fill="#1AAF74"/>
</svg>
