<svg width="48" height="44" viewBox="0 0 48 44" fill="none" xmlns="http://www.w3.org/2000/svg">
<g filter="url(#filter0_d_2146_8466)">
<path d="M22.6125 17.1154H23.7695C24.1508 17.1154 24.5135 17.2481 24.8056 17.4845C25.4714 17.3932 26.1002 17.2161 26.6452 16.9749C26.8025 16.7366 26.9392 16.4834 27.0651 16.224V13.6334C27.0651 13.0476 27.2781 12.5021 27.6474 12.0863C27.1079 8.95238 24.4401 6.56995 21.2223 6.56995C18.0054 6.56995 15.337 8.9527 14.7974 12.0866C15.1664 12.5021 15.3797 13.0476 15.3797 13.6334V16.224C16.4497 18.4212 18.6608 19.934 21.222 19.934C21.2618 19.934 21.3004 19.9288 21.34 19.9278C21.0928 19.629 20.9378 19.2482 20.9378 18.8273C20.9381 17.8834 21.6894 17.1154 22.6125 17.1154Z" fill="url(#paint0_linear_2146_8466)"/>
<path d="M12.6746 17.8581H12.7487C13.5631 17.8581 14.2239 17.2168 14.2239 16.4236V13.5622C14.2239 13 13.8896 12.5157 13.4031 12.2811C13.6135 8.40901 16.9247 5.32227 20.9654 5.32227C25.0062 5.32227 28.3187 8.4087 28.5284 12.2811C28.0419 12.5154 27.7079 13 27.7079 13.5622V16.4236C27.7079 16.6137 27.7462 16.7908 27.8129 16.9565C26.9527 17.5527 25.7014 17.9784 24.2921 18.0962C24.1325 17.8609 23.8605 17.7035 23.5497 17.7035H22.3757C21.8864 17.7035 21.4908 18.0881 21.4908 18.5612C21.4908 19.0348 21.886 19.42 22.3757 19.42H23.5497C23.8916 19.42 24.1832 19.2309 24.3303 18.9566C25.9666 18.8313 27.3894 18.3464 28.389 17.6294C28.6179 17.7733 28.8896 17.8578 29.1828 17.8578H29.2566C30.0719 17.8578 30.7314 17.2164 30.7314 16.4233V13.5619C30.7314 12.9919 30.3872 12.4998 29.8905 12.2714C29.6741 7.67667 25.754 4 20.9658 4C16.1775 4 12.2568 7.67667 12.042 12.272C11.5446 12.5002 11.1994 12.9925 11.1994 13.5625V16.424C11.1994 17.2168 11.8609 17.8581 12.6746 17.8581Z" fill="url(#paint1_linear_2146_8466)"/>
<path d="M36.4123 23.8789H32.1592C31.7297 23.8789 31.3405 24.1254 31.1768 24.5021C31.012 24.8799 31.1034 25.3142 31.4075 25.6031L32.7823 26.9092L28.4378 31.0364L24.9365 27.7102C24.5888 27.3778 24.0423 27.3203 23.6255 27.5657L12.4612 34.1313C11.9615 34.4252 11.8084 35.0474 12.1167 35.5212C12.3177 35.8302 12.6653 35.9999 13.0215 35.9999C13.2129 35.9999 13.4054 35.9515 13.5798 35.8484L24.0274 29.7041L27.685 33.1788C28.1008 33.5737 28.7727 33.5737 29.1885 33.1788L34.2858 28.3374L35.6606 29.6435C35.8636 29.8364 36.1358 29.9394 36.4123 29.9394C36.5495 29.9394 36.6877 29.9142 36.8195 29.8627C37.2172 29.7061 37.4756 29.3374 37.4756 28.9293V24.889C37.4756 24.3314 37.0003 23.8789 36.4123 23.8789Z" fill="url(#paint2_linear_2146_8466)"/>
<path d="M25.8782 20.9636C27.7258 21.1322 29.392 21.9254 30.6673 23.1287C30.3886 23.3535 30.1585 23.6443 30.0071 23.9919C29.622 24.8748 29.8461 25.8796 30.5286 26.5281L30.93 26.9089L28.4378 29.2761L25.8177 26.7878L25.8167 26.7859C25.0459 26.0506 23.8739 25.939 22.9788 26.4656L11.9143 32.9724C10.0008 32.592 8.76785 31.5954 8.76785 28.9929C8.7679 24.7897 11.9832 21.3387 16.0882 20.9636H25.8782Z" fill="url(#paint3_linear_2146_8466)"/>
<g filter="url(#filter1_d_2146_8466)">
<path d="M38.8385 15.7209C38.5317 15.4711 38.1671 15.2586 37.7437 15.0759C37.3217 14.8951 36.8598 14.7211 36.3593 14.5543C36.0993 14.4717 35.8702 14.3898 35.6751 14.3184C35.4788 14.2441 35.3146 14.166 35.1822 14.0852C35.0505 14.001 34.9516 13.9112 34.8844 13.8135C34.8187 13.7187 34.7863 13.6029 34.7863 13.4715C34.7863 13.3398 34.8161 13.2258 34.8772 13.1337C34.9391 13.0432 35.0225 12.9692 35.1252 12.9111C35.229 12.8545 35.3497 12.8141 35.4871 12.7854C35.6237 12.7601 35.7698 12.7488 35.9264 12.7488C36.0778 12.7488 36.2257 12.7699 36.3729 12.816C36.519 12.8601 36.659 12.9179 36.7903 12.985C36.9224 13.0537 37.0466 13.1303 37.1617 13.216C37.2783 13.2994 37.384 13.3828 37.4783 13.464L37.5425 13.5191C37.6074 13.5768 37.6682 13.6236 37.7225 13.6625C37.7773 13.6999 37.8373 13.7176 37.9029 13.7176C37.9826 13.7176 38.0637 13.6787 38.1441 13.5976L39.2292 12.4423C39.2895 12.3774 39.3356 12.317 39.3658 12.2661C39.3979 12.2129 39.4126 12.1585 39.4126 12.0951C39.4126 12.0351 39.3805 11.9615 39.3171 11.8751C39.2526 11.7902 39.1669 11.7022 39.0574 11.6071C38.9495 11.5116 38.8231 11.4146 38.68 11.3135C38.5351 11.2112 38.383 11.1138 38.2218 11.0195C37.9712 10.8821 37.7195 10.7696 37.4682 10.6828C37.2149 10.5953 36.9564 10.5285 36.6911 10.479V9.53021C36.6911 9.43548 36.6526 9.36151 36.5737 9.30377C36.4967 9.24753 36.422 9.2196 36.3529 9.2196H35.0191C34.9153 9.2196 34.838 9.25017 34.7859 9.31056C34.733 9.37283 34.7074 9.44454 34.7074 9.53021V10.5168C34.2964 10.5953 33.9265 10.7206 33.5985 10.887C33.271 11.0557 32.9924 11.2591 32.766 11.5003C32.5392 11.7411 32.3648 12.017 32.2414 12.3223C32.1187 12.6307 32.0576 12.9658 32.0576 13.3292C32.0576 13.7436 32.1278 14.1207 32.2701 14.4592C32.412 14.797 32.6237 15.105 32.9075 15.3869C33.1894 15.6677 33.5442 15.9224 33.9707 16.1512C34.3956 16.3829 34.8908 16.5957 35.4577 16.7924C35.5852 16.8365 35.7362 16.8894 35.9113 16.9516C36.0861 17.0158 36.2533 17.0928 36.4148 17.1834C36.5741 17.2736 36.7107 17.3755 36.8228 17.4917C36.9322 17.6068 36.9881 17.7389 36.9881 17.8842C36.9881 18.0171 36.9685 18.142 36.9281 18.2601C36.8888 18.3783 36.8216 18.4821 36.7262 18.5726C36.6314 18.6602 36.5042 18.7349 36.3408 18.7885C36.1782 18.841 35.9755 18.8693 35.7347 18.8693C35.4743 18.8693 35.2267 18.8247 34.9904 18.7349C34.7538 18.644 34.5157 18.5202 34.2756 18.3598C34.1137 18.2511 33.9722 18.142 33.8473 18.0303C33.7205 17.9201 33.6185 17.8299 33.5378 17.7646C33.4721 17.7072 33.4155 17.6646 33.3672 17.6378C33.3223 17.6072 33.2774 17.5925 33.2332 17.5925C33.1717 17.5925 33.0921 17.6276 32.992 17.7001L31.7666 18.8697C31.6579 18.9693 31.6035 19.0587 31.6035 19.138C31.6035 19.2097 31.6579 19.3041 31.7666 19.4226C31.7719 19.4271 31.7768 19.4294 31.7802 19.4339C31.7851 19.4339 31.7892 19.4414 31.7949 19.4497C31.7998 19.455 31.8055 19.4592 31.8092 19.4614C31.8138 19.4637 31.8187 19.4712 31.8232 19.4777L31.8443 19.5011C31.9191 19.5796 32.0232 19.6871 32.1515 19.8181C32.2833 19.9521 32.4425 20.0864 32.6312 20.2238C32.943 20.4506 33.274 20.6473 33.6231 20.8111C33.9726 20.9764 34.3334 21.099 34.7074 21.1802V22.2147C34.7074 22.4226 34.8104 22.5268 35.0191 22.5268H36.3529C36.5775 22.5268 36.6911 22.423 36.6911 22.2147V21.1998C37.1447 21.1217 37.5617 20.985 37.9414 20.7929C38.3219 20.6042 38.6513 20.3623 38.931 20.0732C39.2092 19.7868 39.4262 19.4573 39.5824 19.0874C39.7383 18.7138 39.816 18.3092 39.816 17.8646C39.816 17.3736 39.7296 16.955 39.5579 16.6105C39.3854 16.2655 39.145 15.9689 38.8385 15.7209Z" fill="white"/>
</g>
</g>
<defs>
<filter id="filter0_d_2146_8466" x="0.767853" y="0.571429" width="47.0482" height="48" filterUnits="userSpaceOnUse" color-interpolation-filters="sRGB">
<feFlood flood-opacity="0" result="BackgroundImageFix"/>
<feColorMatrix in="SourceAlpha" type="matrix" values="0 0 0 0 0 0 0 0 0 0 0 0 0 0 0 0 0 0 127 0" result="hardAlpha"/>
<feOffset dy="4.57143"/>
<feGaussianBlur stdDeviation="4"/>
<feComposite in2="hardAlpha" operator="out"/>
<feColorMatrix type="matrix" values="0 0 0 0 0.610819 0 0 0 0 0.216562 0 0 0 0 0.675 0 0 0 0.45 0"/>
<feBlend mode="normal" in2="BackgroundImageFix" result="effect1_dropShadow_2146_8466"/>
<feBlend mode="normal" in="SourceGraphic" in2="effect1_dropShadow_2146_8466" result="shape"/>
</filter>
<filter id="filter1_d_2146_8466" x="30.6035" y="9.2196" width="10.2125" height="15.3071" filterUnits="userSpaceOnUse" color-interpolation-filters="sRGB">
<feFlood flood-opacity="0" result="BackgroundImageFix"/>
<feColorMatrix in="SourceAlpha" type="matrix" values="0 0 0 0 0 0 0 0 0 0 0 0 0 0 0 0 0 0 127 0" result="hardAlpha"/>
<feOffset dy="1"/>
<feGaussianBlur stdDeviation="0.5"/>
<feComposite in2="hardAlpha" operator="out"/>
<feColorMatrix type="matrix" values="0 0 0 0 0 0 0 0 0 0 0 0 0 0 0 0 0 0 0.25 0"/>
<feBlend mode="normal" in2="BackgroundImageFix" result="effect1_dropShadow_2146_8466"/>
<feBlend mode="normal" in="SourceGraphic" in2="effect1_dropShadow_2146_8466" result="shape"/>
</filter>
<linearGradient id="paint0_linear_2146_8466" x1="21.2224" y1="19.934" x2="21.2224" y2="6.56995" gradientUnits="userSpaceOnUse">
<stop stop-color="#FCDBFF"/>
<stop offset="1" stop-color="white"/>
</linearGradient>
<linearGradient id="paint1_linear_2146_8466" x1="20.9654" y1="19.42" x2="20.9654" y2="4" gradientUnits="userSpaceOnUse">
<stop stop-color="#A93AFF"/>
<stop offset="1" stop-color="#FF81FF"/>
</linearGradient>
<linearGradient id="paint2_linear_2146_8466" x1="24.7166" y1="35.9999" x2="24.7166" y2="23.8789" gradientUnits="userSpaceOnUse">
<stop stop-color="#FCDBFF"/>
<stop offset="1" stop-color="white"/>
</linearGradient>
<linearGradient id="paint3_linear_2146_8466" x1="19.8489" y1="32.9724" x2="19.8489" y2="20.9636" gradientUnits="userSpaceOnUse">
<stop stop-color="#A93AFF"/>
<stop offset="1" stop-color="#FF81FF"/>
</linearGradient>
</defs>
</svg>
