<svg width="25" height="24" viewBox="0 0 25 24" fill="none" xmlns="http://www.w3.org/2000/svg">
<path fill-rule="evenodd" clip-rule="evenodd" d="M11.55 15C11.55 14.403 11.313 13.8307 10.8907 13.4092C10.4692 12.987 9.89699 12.75 9.29999 12.75C7.81049 12.75 5.53949 12.75 4.04999 12.75C3.45299 12.75 2.88074 12.987 2.45924 13.4092C2.03699 13.8307 1.79999 14.403 1.79999 15V20.25C1.79999 20.847 2.03699 21.4193 2.45924 21.8408C2.88074 22.263 3.45299 22.5 4.04999 22.5H9.29999C9.89699 22.5 10.4692 22.263 10.8907 21.8408C11.313 21.4193 11.55 20.847 11.55 20.25V15ZM22.8 15C22.8 14.403 22.563 13.8307 22.1407 13.4092C21.7192 12.987 21.147 12.75 20.55 12.75C19.0605 12.75 16.7895 12.75 15.3 12.75C14.703 12.75 14.1307 12.987 13.7092 13.4092C13.287 13.8307 13.05 14.403 13.05 15V20.25C13.05 20.847 13.287 21.4193 13.7092 21.8408C14.1307 22.263 14.703 22.5 15.3 22.5H20.55C21.147 22.5 21.7192 22.263 22.1407 21.8408C22.563 21.4193 22.8 20.847 22.8 20.25V15ZM11.55 3.75C11.55 3.153 11.313 2.58075 10.8907 2.15925C10.4692 1.737 9.89699 1.5 9.29999 1.5C7.81049 1.5 5.53949 1.5 4.04999 1.5C3.45299 1.5 2.88074 1.737 2.45924 2.15925C2.03699 2.58075 1.79999 3.153 1.79999 3.75V9C1.79999 9.597 2.03699 10.1693 2.45924 10.5908C2.88074 11.013 3.45299 11.25 4.04999 11.25H9.29999C9.89699 11.25 10.4692 11.013 10.8907 10.5908C11.313 10.1693 11.55 9.597 11.55 9V3.75Z" fill="#AFB3BE"/>
<path fill-rule="evenodd" clip-rule="evenodd" d="M22.6443 7.96577L19.5153 11.0948C18.637 11.973 17.212 11.973 16.3338 11.0948L13.2048 7.96577C12.3265 7.08752 12.3265 5.66252 13.2048 4.78427L16.3338 1.65527C17.212 0.77702 18.637 0.77702 19.5153 1.65527L22.6443 4.78427C23.5225 5.66252 23.5225 7.08752 22.6443 7.96577ZM19.3 6C19.8523 6 20.3 5.55228 20.3 5C20.3 4.44772 19.8523 4 19.3 4C18.7477 4 18.3 4.44772 18.3 5C18.3 5.55228 18.7477 6 19.3 6Z" fill="#6F767E"/>
</svg>
