<svg width="25" height="24" viewBox="0 0 25 24" fill="none" xmlns="http://www.w3.org/2000/svg">
<rect x="2.49998" y="19.6777" width="20" height="2.21462" rx="1" fill="#AFB3BE"/>
<path d="M13.709 11.4161C14.0061 10.5275 14.1547 10.0832 14.502 9.85513C14.5539 9.82108 14.6083 9.7911 14.6647 9.76547C15.0431 9.59376 15.498 9.7055 16.4079 9.92898L19.7604 10.7524C20.9438 11.043 21.5355 11.1884 21.7892 11.649C22.043 12.1095 21.8498 12.6873 21.4632 13.843L21.3518 14.1761C20.9617 15.3425 20.7667 15.9257 20.2824 16.1399C19.7982 16.3542 19.2354 16.1063 18.1099 15.6106L14.9489 14.2184C14.0995 13.8443 13.6748 13.6572 13.4794 13.2941C13.4502 13.2398 13.4252 13.1834 13.4047 13.1253C13.2673 12.7364 13.4145 12.2963 13.709 11.4161Z" fill="#AFB3BE"/>
<rect x="3.4848" y="12.7603" width="9.63048" height="1.7727" rx="0.886352" transform="rotate(18.493 3.4848 12.7603)" fill="#6F767E"/>
<rect x="7.42128" y="2" width="9.63048" height="1.7727" rx="0.886352" transform="rotate(18.493 7.42128 2)" fill="#6F767E"/>
<rect x="7.4128" y="4.29797" width="7.80849" height="8.82757" rx="1.19945" transform="rotate(18.493 7.4128 4.29797)" fill="#AFB3BE"/>
</svg>
