<svg width="21" height="20" viewBox="0 0 21 20" fill="none" xmlns="http://www.w3.org/2000/svg">
<path fill-rule="evenodd" clip-rule="evenodd" d="M1.21919 5.82274C0.699986 6.77128 0.699986 7.91549 0.699986 10.2039V11.725C0.699986 15.6258 0.699986 17.5763 1.87156 18.7881C3.04313 20 4.92875 20 8.69999 20H12.7C16.4712 20 18.3568 20 19.5284 18.7881C20.7 17.5763 20.7 15.6258 20.7 11.725V10.2039C20.7 7.91549 20.7 6.77128 20.1808 5.82274C19.6616 4.87421 18.713 4.28551 16.816 3.10812L14.816 1.86687C12.8106 0.62229 11.8079 0 10.7 0C9.59205 0 8.58937 0.62229 6.58402 1.86687L4.58402 3.10813C2.68693 4.28551 1.73839 4.87421 1.21919 5.82274ZM7.69999 15.25C7.28577 15.25 6.94999 15.5858 6.94999 16C6.94999 16.4142 7.28577 16.75 7.69999 16.75H13.7C14.1142 16.75 14.45 16.4142 14.45 16C14.45 15.5858 14.1142 15.25 13.7 15.25H7.69999Z" fill="#1AAF74"/>
</svg>
