<svg width="20" height="20" viewBox="0 0 20 20" fill="none" xmlns="http://www.w3.org/2000/svg">
<path fill-rule="evenodd" clip-rule="evenodd" d="M10 6.875C8.27411 6.875 6.875 8.27411 6.875 10C6.875 11.7259 8.27411 13.125 10 13.125C11.7259 13.125 13.125 11.7259 13.125 10C13.125 8.27411 11.7259 6.875 10 6.875ZM8.125 10C8.125 8.96447 8.96447 8.125 10 8.125C11.0355 8.125 11.875 8.96447 11.875 10C11.875 11.0355 11.0355 11.875 10 11.875C8.96447 11.875 8.125 11.0355 8.125 10Z" fill="#6F767E"/>
<path fill-rule="evenodd" clip-rule="evenodd" d="M10 1.04167C9.41284 1.04167 8.87654 1.203 8.29048 1.47531C7.7234 1.7388 7.06699 2.12753 6.24547 2.61405L5.6179 2.9857C4.79611 3.47235 4.13976 3.86104 3.63397 4.23287C3.11095 4.61736 2.70981 5.01093 2.41945 5.52677C2.12956 6.04179 1.99868 6.59246 1.93588 7.24589C1.87499 7.8795 1.87499 8.65542 1.875 9.63V10.37C1.87499 11.3446 1.87499 12.1205 1.93588 12.7541C1.99868 13.4075 2.12956 13.9582 2.41945 14.4732C2.70981 14.9891 3.11095 15.3826 3.63397 15.7671C4.13976 16.139 4.79611 16.5277 5.6179 17.0143L6.2455 17.386C7.06698 17.8725 7.72342 18.2612 8.29048 18.5247C8.87654 18.797 9.41284 18.9583 10 18.9583C10.5872 18.9583 11.1235 18.797 11.7095 18.5247C12.2766 18.2612 12.933 17.8725 13.7545 17.386L14.3821 17.0143C15.2039 16.5277 15.8602 16.139 16.366 15.7671C16.889 15.3826 17.2902 14.9891 17.5805 14.4732C17.8704 13.9582 18.0013 13.4075 18.0641 12.7541C18.125 12.1205 18.125 11.3446 18.125 10.37V9.63002C18.125 8.65547 18.125 7.87949 18.0641 7.24589C18.0013 6.59246 17.8704 6.04179 17.5805 5.52677C17.2902 5.01093 16.889 4.61736 16.366 4.23287C15.8602 3.86104 15.2039 3.47236 14.3821 2.98571L13.7545 2.61404C12.933 2.12753 12.2766 1.7388 11.7095 1.47531C11.1235 1.203 10.5872 1.04167 10 1.04167ZM6.85437 3.7062C7.71032 3.19931 8.31338 2.84301 8.81721 2.60891C9.3085 2.38063 9.65895 2.29167 10 2.29167C10.341 2.29167 10.6915 2.38063 11.1828 2.60891C11.6866 2.84301 12.2897 3.19931 13.1456 3.7062L13.7174 4.04482C14.5733 4.55164 15.1758 4.90929 15.6256 5.24C16.0639 5.56223 16.3175 5.83122 16.4912 6.1399C16.6655 6.44941 16.7666 6.81159 16.8199 7.36546C16.8743 7.93237 16.875 8.64835 16.875 9.66138V10.3386C16.875 11.3517 16.8743 12.0676 16.8199 12.6345C16.7666 13.1884 16.6655 13.5506 16.4912 13.8601C16.3175 14.1688 16.0639 14.4378 15.6256 14.76C15.1758 15.0907 14.5733 15.4484 13.7174 15.9552L13.1456 16.2938C12.2897 16.8007 11.6866 17.157 11.1828 17.3911C10.6915 17.6194 10.341 17.7083 10 17.7083C9.65895 17.7083 9.3085 17.6194 8.81721 17.3911C8.31338 17.157 7.71032 16.8007 6.85437 16.2938L6.28257 15.9552C5.42675 15.4484 4.82422 15.0907 4.37436 14.76C3.93605 14.4378 3.6825 14.1688 3.50875 13.8601C3.33454 13.5506 3.23338 13.1884 3.18015 12.6345C3.12567 12.0676 3.125 11.3517 3.125 10.3386V9.66138C3.125 8.64835 3.12567 7.93237 3.18015 7.36546C3.23338 6.81158 3.33454 6.44941 3.50875 6.1399C3.6825 5.83122 3.93605 5.56223 4.37436 5.24C4.82422 4.90929 5.42675 4.55164 6.28257 4.04482L6.85437 3.7062Z" fill="#6F767E"/>
</svg>
