<svg width="22" height="22" viewBox="0 0 22 22" fill="none" xmlns="http://www.w3.org/2000/svg">
<path fill-rule="evenodd" clip-rule="evenodd" d="M10.5 1.75C5.66754 1.75 1.75003 5.66751 1.75003 10.5C1.75003 15.3325 5.66754 19.25 10.5 19.25C15.3325 19.25 19.25 15.3325 19.25 10.5C19.25 5.66751 15.3325 1.75 10.5 1.75ZM0.250031 10.5C0.250031 4.83908 4.83911 0.25 10.5 0.25C16.161 0.25 20.75 4.83908 20.75 10.5C20.75 13.0605 19.8112 15.4017 18.2589 17.1982L21.5304 20.4697C21.8233 20.7626 21.8233 21.2374 21.5304 21.5303C21.2375 21.8232 20.7626 21.8232 20.4697 21.5303L17.1982 18.2589C15.4018 19.8111 13.0605 20.75 10.5 20.75C4.83911 20.75 0.250031 16.1609 0.250031 10.5Z" fill="white"/>
</svg>
