<svg width="49" height="53" viewBox="0 0 49 53" fill="none" xmlns="http://www.w3.org/2000/svg">
<g filter="url(#filter0_d_2146_8479)">
<path d="M37.3656 34.0177C37.3656 41.1006 33.5211 41.3215 23.5466 41.3215C23.5425 41.3215 23.5404 41.3215 23.5363 41.3215C13.5618 41.3215 9.7173 41.1006 9.7173 34.0177C9.7173 28.0621 15.0441 24.6589 20.021 16.6945H23.5363H23.5466H27.0619C32.0388 24.6589 37.3656 28.0621 37.3656 34.0177Z" fill="url(#paint0_linear_2146_8479)"/>
<path d="M29.7059 10.7289L27.4486 15.7645H19.3192L17.0769 10.8998C17.0341 10.5387 17.5129 10.2449 17.9811 10.2219C18.4492 10.1988 18.8938 10.3678 19.3128 10.5291C19.7318 10.6905 20.1807 10.8537 20.6467 10.8211C21.6513 10.7519 22.4465 9.80703 23.4127 10.0356C23.9963 10.1719 24.3148 10.702 24.9005 10.8364C25.6294 11.0054 26.2942 10.4984 26.9911 10.2641C27.8996 9.95683 29.0518 10.1546 29.7059 10.7289Z" fill="url(#paint1_linear_2146_8479)"/>
<path d="M27.0808 16.8517C27.0585 16.8499 26.2538 16.7879 25.4627 16.7531L27.5125 22.4054C27.6585 22.8082 27.3599 23.2334 26.9314 23.2335C26.643 23.2335 26.3928 23.0343 26.3289 22.7531L25.0301 17.0284L24.5681 21.1241C24.5314 21.4477 24.2571 21.6925 23.9314 21.6925C23.5046 21.6925 23.1977 21.282 23.3172 20.8722L24.5242 16.7296H22.1648L21.7918 16.7345C20.881 16.7577 19.7062 16.8502 19.6873 16.8517L19.3191 15.547H27.449L27.0808 16.8517Z" fill="#FFFEFC"/>
<path d="M22.9907 26.4325V25.2874H26.5702V26.4325H22.9907ZM22.1816 34.6817C21.4913 34.6817 20.8947 34.5103 20.3919 34.1674C19.8936 33.8245 19.5073 33.3583 19.233 32.7685C18.9633 32.1743 18.8285 31.5068 18.8285 30.7663C18.8285 30.0211 18.9656 29.356 19.2399 28.7708C19.5142 28.1811 19.9027 27.7171 20.4056 27.3788C20.913 27.036 21.5142 26.8645 22.209 26.8645C22.9085 26.8645 23.4959 27.036 23.9713 27.3788C24.4513 27.7171 24.8125 28.1811 25.0547 28.7708C25.3016 29.3605 25.425 30.0257 25.425 30.7663C25.425 31.5068 25.3016 32.172 25.0547 32.7617C24.8079 33.3514 24.4445 33.82 23.9645 34.1674C23.4845 34.5103 22.8902 34.6817 22.1816 34.6817ZM22.3805 33.3857C22.8513 33.3857 23.2353 33.2737 23.5325 33.0497C23.8296 32.8257 24.0467 32.5171 24.1839 32.124C24.321 31.7308 24.3896 31.2783 24.3896 30.7663C24.3896 30.2543 24.3187 29.8017 24.177 29.4085C24.0399 29.0154 23.825 28.7091 23.5325 28.4897C23.2445 28.2703 22.8765 28.1605 22.4285 28.1605C21.953 28.1605 21.5622 28.2771 21.2559 28.5103C20.9496 28.7434 20.721 29.0565 20.5702 29.4497C20.4239 29.8428 20.3507 30.2817 20.3507 30.7663C20.3507 31.2554 20.4239 31.6988 20.5702 32.0965C20.721 32.4897 20.945 32.8028 21.2422 33.036C21.5439 33.2691 21.9233 33.3857 22.3805 33.3857ZM24.3896 34.476V29.148H24.225V24.6017H25.665V34.476H24.3896Z" fill="white"/>
<path d="M38.8054 40.242L38.8656 39.426L38.6563 39.4116C38.1083 38.16 36.1508 37.1226 33.7495 36.9336C31.2826 36.7393 29.1383 37.5014 28.4582 38.707L28.2947 38.6954L28.2381 39.4098C28.1132 41.0077 30.3762 42.4887 33.294 42.7191C36.2137 42.9485 38.6805 41.8391 38.8054 40.242Z" fill="#FE9C08"/>
<path d="M33.3517 42.0058C30.4339 41.7754 28.1709 40.2944 28.2967 38.6965C28.4216 37.0994 30.8893 35.99 33.8063 36.2203C36.7241 36.4507 38.9871 37.9317 38.8622 39.5296C38.7364 41.1258 36.2696 42.2352 33.3517 42.0058Z" fill="#FFAC2F"/>
<path d="M33.7262 36.7117C36.2713 36.9124 38.2674 38.1288 38.2989 39.4668C38.3069 39.4218 38.3132 39.3759 38.3168 39.33C38.4264 37.939 36.3809 36.6442 33.7487 36.4364C31.1165 36.2285 28.8931 37.1877 28.7844 38.5787C28.7808 38.6246 28.7799 38.6705 28.7808 38.7164C29.0189 37.4 31.1812 36.5102 33.7262 36.7117Z" fill="#FE9C08"/>
<path d="M33.3524 41.4713C35.8975 41.672 38.0598 40.7821 38.2988 39.4666C38.2682 38.1287 36.2712 36.9122 33.7262 36.7116C31.1811 36.5109 29.0188 37.4008 28.7798 38.7162C28.8104 40.0533 30.8074 41.2707 33.3524 41.4713Z" fill="#FFDC69"/>
<path opacity="0.5" d="M34.2239 37.2985C34.78 37.9959 35.3083 38.7121 35.8284 39.4373C36.1877 39.9384 36.5444 40.4414 36.9001 40.9453C37.1786 40.8148 37.4239 40.6654 37.6287 40.4981C37.246 39.9276 36.857 39.3608 36.4581 38.8002C36.0018 38.1605 35.5266 37.5361 35.0459 36.9152C34.6381 36.8199 34.2069 36.7506 33.7568 36.7146C33.9122 36.9089 34.0685 37.1033 34.2239 37.2985Z" fill="#FFDC69"/>
<path opacity="0.5" d="M30.3967 38.434C31.0471 39.2285 31.6688 40.0509 32.276 40.8796C32.4 41.0478 32.5213 41.2179 32.6426 41.3879C32.8734 41.4248 33.1106 41.4527 33.3523 41.4716C33.7538 41.5031 34.1446 41.5067 34.521 41.4869C34.1554 41.0073 33.7844 40.5332 33.4017 40.0671C32.5581 39.0378 31.6975 38.0219 30.8764 36.9746C30.3976 37.1177 29.979 37.3093 29.6439 37.5397C29.8954 37.8366 30.1496 38.1326 30.3967 38.434Z" fill="#FFDC69"/>
<path opacity="0.6" d="M38.2023 40.7797C38.2023 40.7797 38.1808 40.8139 38.1296 40.8715C38.1044 40.9003 38.073 40.9353 38.0316 40.9731C38.011 40.992 37.9903 41.0145 37.9661 41.0352C37.9418 41.055 37.9149 41.0766 37.8879 41.1C37.7774 41.1909 37.6319 41.2881 37.4585 41.3888C37.3713 41.4383 37.2752 41.4833 37.1746 41.5346C37.0731 41.5814 36.9617 41.6228 36.8485 41.6704C36.7326 41.7118 36.6095 41.7496 36.4838 41.7919C36.3562 41.8297 36.2224 41.8585 36.0849 41.8936C36.0166 41.9125 35.9457 41.9233 35.8747 41.9359C35.8028 41.9485 35.731 41.962 35.6582 41.9746C35.5127 42.0052 35.3617 42.016 35.209 42.034C35.1327 42.042 35.0554 42.051 34.9781 42.0591C34.9 42.0654 34.8218 42.0681 34.7428 42.0726C34.5847 42.0789 34.4248 42.0933 34.2631 42.0924C34.1014 42.0906 33.9388 42.0888 33.7761 42.0879L33.654 42.087C33.6135 42.0852 33.5722 42.0825 33.5318 42.0798L33.2865 42.0654C33.1239 42.0546 32.9613 42.0438 32.7987 42.0331C32.6343 42.0205 32.4717 41.9998 32.3118 41.9746C31.9911 41.9242 31.6803 41.8486 31.3856 41.7595C31.0901 41.6713 30.8116 41.5625 30.5547 41.4437C30.2977 41.3249 30.0642 41.1927 29.8584 41.0577C29.6518 40.9227 29.473 40.7842 29.3248 40.6501C29.2485 40.5853 29.1838 40.517 29.12 40.4585C29.0598 40.3964 29.0059 40.3379 28.9565 40.2857C28.8631 40.1777 28.7921 40.0905 28.7472 40.0284C28.7014 39.9672 28.6771 39.9348 28.6771 39.9348C28.6771 39.9348 28.7041 39.9654 28.7544 40.023C28.7804 40.0509 28.8101 40.0878 28.8487 40.1274C28.8873 40.167 28.9313 40.2128 28.9799 40.265C29.032 40.3136 29.0877 40.3685 29.1514 40.4261C29.217 40.481 29.2844 40.544 29.3634 40.6033C29.5171 40.7275 29.7012 40.8526 29.9087 40.9776C30.3238 41.2269 30.8439 41.4572 31.4261 41.621C31.7162 41.7046 32.0226 41.7685 32.3361 41.818C32.4933 41.8414 32.6514 41.8612 32.8104 41.872C32.9721 41.881 33.1347 41.8909 33.2964 41.9008L33.5381 41.917C33.5785 41.9197 33.6189 41.9233 33.6594 41.9242L33.7806 41.926C33.9414 41.9278 34.1023 41.9305 34.2613 41.9332C34.3412 41.9368 34.4203 41.9296 34.4993 41.9278C34.5784 41.9251 34.6565 41.9224 34.7347 41.9197C34.8128 41.9161 34.8901 41.9161 34.9674 41.9107C35.0437 41.9035 35.1201 41.8963 35.1955 41.89C35.3456 41.8747 35.4956 41.8657 35.6384 41.8405C35.7103 41.8297 35.7822 41.8189 35.8522 41.8081C35.9223 41.7973 35.9924 41.7892 36.0598 41.7721C36.1945 41.7415 36.3275 41.7154 36.4541 41.6839C36.579 41.648 36.7012 41.6156 36.8171 41.5796C36.9312 41.5382 37.0408 41.5004 37.1441 41.4608C37.2447 41.4158 37.3426 41.3771 37.4306 41.333C37.6058 41.2449 37.7549 41.1567 37.869 41.073C37.9265 41.0316 37.9777 40.9938 38.0191 40.9578C38.0631 40.9236 38.0963 40.8913 38.1233 40.8643C38.1781 40.8121 38.2023 40.7797 38.2023 40.7797Z" fill="white"/>
<path d="M33.5161 37.1264L33.3346 36.2167L33.102 36.2653C32.1246 35.0668 29.6739 34.5315 26.9977 35.056C24.2478 35.595 22.1403 37.0787 21.7648 38.6011L21.5833 38.6389L21.7387 39.4352C22.0873 41.2158 25.006 42.1434 28.2581 41.5055C31.5092 40.8676 33.8638 38.907 33.5161 37.1264Z" fill="#FE9C08"/>
<path d="M28.1018 40.7093C24.8489 41.3464 21.9311 40.4196 21.5825 38.639C21.2348 36.8584 23.5894 34.8978 26.8415 34.2608C30.0935 33.6237 33.0122 34.5505 33.3608 36.3311C33.7084 38.1117 31.3539 40.0723 28.1018 40.7093Z" fill="#FFAC2F"/>
<path d="M26.9034 34.8203C29.7404 34.2643 32.2872 34.985 32.7265 36.4345C32.722 36.3823 32.7148 36.331 32.705 36.2797C32.4022 34.7303 29.7781 33.9395 26.8432 34.5144C23.9083 35.0893 21.7756 36.8124 22.0784 38.3618C22.0882 38.4131 22.1008 38.4634 22.1161 38.5129C21.9786 37.0049 24.0664 35.3764 26.9034 34.8203Z" fill="#FE9C08"/>
<path d="M27.9401 40.1276C30.777 39.5715 32.8657 37.9429 32.7265 36.4349C32.2872 34.9854 29.7404 34.2656 26.9034 34.8208C24.0664 35.3768 21.9777 37.0054 22.116 38.5134C22.5562 39.9629 25.1031 40.6836 27.9401 40.1276Z" fill="#FFDC69"/>
<path opacity="0.5" d="M27.6245 35.3091C28.4429 35.9003 29.2362 36.5202 30.0231 37.1528C30.5675 37.59 31.1092 38.0309 31.6501 38.4718C31.9142 38.2451 32.137 38.0066 32.3094 37.7619C31.7183 37.2553 31.1227 36.756 30.5181 36.2665C29.8264 35.7068 29.1185 35.1706 28.4052 34.6406C27.9327 34.6604 27.4404 34.7171 26.9382 34.8134C27.1664 34.9798 27.3955 35.1436 27.6245 35.3091Z" fill="#FFDC69"/>
<path opacity="0.5" d="M23.7944 37.712C24.7457 38.3806 25.6737 39.0887 26.5864 39.8076C26.7724 39.9542 26.9566 40.1018 27.1398 40.2503C27.403 40.2197 27.6699 40.1792 27.9394 40.1261C28.3867 40.0379 28.8144 39.9237 29.2186 39.7869C28.6751 39.3757 28.1253 38.9708 27.5674 38.5785C26.3349 37.7129 25.088 36.8663 23.8743 35.9746C23.3955 36.276 22.9975 36.6125 22.7011 36.9661C23.0667 37.2136 23.4341 37.4583 23.7944 37.712Z" fill="#FFDC69"/>
<path opacity="0.6" d="M33.0213 37.8965C33.0213 37.8965 33.0079 37.9406 32.9692 38.0189C32.9504 38.0575 32.927 38.1061 32.8938 38.1601C32.8776 38.1871 32.8614 38.2177 32.8417 38.2474C32.821 38.2771 32.7985 38.3086 32.7752 38.3419C32.6818 38.475 32.5533 38.6253 32.3943 38.7872C32.3143 38.8682 32.2227 38.9465 32.1293 39.0329C32.0323 39.1148 31.9236 39.1939 31.814 39.2803C31.6999 39.3613 31.5777 39.4396 31.4528 39.5232C31.3253 39.6033 31.1878 39.6753 31.0486 39.7554C30.9803 39.7968 30.9057 39.8301 30.8321 39.8661C30.7584 39.902 30.6838 39.938 30.6075 39.974C30.4583 40.0514 30.2966 40.109 30.1358 40.1756C30.055 40.208 29.9732 40.2404 29.8915 40.2736C29.8079 40.3042 29.7235 40.3312 29.639 40.36C29.4684 40.4149 29.2986 40.4788 29.1225 40.5274C28.9464 40.5751 28.7685 40.6228 28.5898 40.6713L28.4559 40.7073C28.411 40.7181 28.3652 40.7271 28.3203 40.737L28.0481 40.7955C27.8675 40.8333 27.6869 40.8711 27.5064 40.9089C27.3231 40.9449 27.1389 40.9719 26.9575 40.9935C26.5927 41.0366 26.2307 41.0483 25.8821 41.0411C25.5327 41.0348 25.1958 41.0007 24.8796 40.9494C24.5634 40.8981 24.2687 40.8252 24.0028 40.7397C23.7369 40.6551 23.4988 40.5589 23.2967 40.4572C23.1934 40.4104 23.1026 40.3555 23.0164 40.3105C22.932 40.262 22.8556 40.2143 22.7855 40.1729C22.6499 40.0829 22.5466 40.0091 22.4792 39.9551C22.4109 39.902 22.3741 39.8742 22.3741 39.8742C22.3741 39.8742 22.4127 39.8993 22.4855 39.947C22.5223 39.9695 22.5654 40.001 22.6193 40.0325C22.6732 40.064 22.7352 40.1009 22.8044 40.1414C22.8754 40.1792 22.9535 40.2215 23.0398 40.2656C23.1287 40.3051 23.2212 40.3537 23.3245 40.3942C23.5303 40.4824 23.7692 40.5634 24.0333 40.6372C24.5616 40.782 25.1994 40.8756 25.8839 40.8765C26.2262 40.8792 26.5802 40.8558 26.9359 40.8144C27.1138 40.7928 27.2926 40.7649 27.4695 40.7289C27.6492 40.6911 27.8289 40.6515 28.0085 40.6129L28.278 40.5571C28.323 40.5472 28.3679 40.5382 28.4128 40.5283L28.5449 40.4932C28.7218 40.4464 28.897 40.4005 29.0722 40.3555C29.1602 40.3348 29.2447 40.3033 29.3291 40.2763C29.4145 40.2494 29.4989 40.2224 29.5834 40.1963C29.6678 40.1693 29.7522 40.1441 29.834 40.1153C29.9148 40.0847 29.9957 40.0541 30.0756 40.0226C30.2356 39.9605 30.3955 39.9056 30.5446 39.8346C30.62 39.8004 30.6946 39.7671 30.7683 39.7347C30.8419 39.7014 30.9156 39.6708 30.9839 39.6321C31.1222 39.5583 31.2588 39.49 31.3872 39.4162C31.513 39.3388 31.637 39.2659 31.752 39.1921C31.8634 39.1121 31.9712 39.0374 32.0718 38.9627C32.1679 38.8826 32.2631 38.8115 32.3458 38.736C32.5102 38.5857 32.6458 38.4444 32.7455 38.3194C32.7959 38.2564 32.8399 38.1997 32.874 38.1475C32.9108 38.0971 32.9387 38.0512 32.9594 38.0135C33.0043 37.9397 33.0213 37.8965 33.0213 37.8965Z" fill="white"/>
</g>
<defs>
<filter id="filter0_d_2146_8479" x="0.383966" y="0.666666" width="48.0624" height="51.4158" filterUnits="userSpaceOnUse" color-interpolation-filters="sRGB">
<feFlood flood-opacity="0" result="BackgroundImageFix"/>
<feColorMatrix in="SourceAlpha" type="matrix" values="0 0 0 0 0 0 0 0 0 0 0 0 0 0 0 0 0 0 127 0" result="hardAlpha"/>
<feOffset/>
<feGaussianBlur stdDeviation="4.66667"/>
<feComposite in2="hardAlpha" operator="out"/>
<feColorMatrix type="matrix" values="0 0 0 0 0.795833 0 0 0 0 0.238883 0 0 0 0 0.0630035 0 0 0 0.25 0"/>
<feBlend mode="normal" in2="BackgroundImageFix" result="effect1_dropShadow_2146_8479"/>
<feBlend mode="normal" in="SourceGraphic" in2="effect1_dropShadow_2146_8479" result="shape"/>
</filter>
<linearGradient id="paint0_linear_2146_8479" x1="23.5414" y1="16.6945" x2="23.5414" y2="41.3215" gradientUnits="userSpaceOnUse">
<stop stop-color="#FFAF14"/>
<stop offset="1" stop-color="#E64F20"/>
</linearGradient>
<linearGradient id="paint1_linear_2146_8479" x1="23.39" y1="10" x2="23.39" y2="15.7645" gradientUnits="userSpaceOnUse">
<stop stop-color="#F47D4A"/>
<stop offset="1" stop-color="#FFCA42"/>
</linearGradient>
</defs>
</svg>
