<svg width="16" height="16" viewBox="0 0 16 16" fill="none" xmlns="http://www.w3.org/2000/svg">
<path fill-rule="evenodd" clip-rule="evenodd" d="M7.1291 0.666657H8.53765C9.76283 0.666646 10.7332 0.666638 11.4927 0.768747C12.2743 0.873832 12.907 1.09524 13.4059 1.59415C13.6011 1.78941 13.6011 2.106 13.4059 2.30126C13.2106 2.49652 12.894 2.49652 12.6988 2.30126C12.4166 2.01912 12.0302 1.85001 11.3595 1.75983C10.6744 1.66772 9.77126 1.66666 8.50004 1.66666H7.16671C5.89549 1.66666 4.99238 1.66772 4.30727 1.75983C3.63655 1.85001 3.25012 2.01912 2.96798 2.30126C2.68584 2.5834 2.51672 2.96983 2.42655 3.64056C2.33444 4.32566 2.33337 5.22878 2.33337 6.49999V9.16666C2.33337 10.4379 2.33444 11.341 2.42655 12.0261C2.51672 12.6968 2.68584 13.0832 2.96798 13.3654C3.25012 13.6475 3.63655 13.8166 4.30727 13.9068C4.99238 13.9989 5.89549 14 7.16671 14H8.50004C9.77126 14 10.6744 13.9989 11.3595 13.9068C12.0302 13.8166 12.4166 13.6475 12.6988 13.3654C13.1627 12.9014 13.3032 12.1805 13.3276 10.4928C13.3316 10.2166 13.5587 9.99605 13.8348 10C14.1109 10.004 14.3315 10.2311 14.3275 10.5072C14.3041 12.1255 14.1994 13.279 13.4059 14.0725C12.907 14.5714 12.2743 14.7928 11.4927 14.8979C10.7332 15 9.76282 15 8.53765 15H7.1291C5.90393 15 4.9335 15 4.17403 14.8979C3.39241 14.7928 2.75978 14.5714 2.26087 14.0725C1.76196 13.5736 1.54055 12.941 1.43546 12.1593C1.33336 11.3999 1.33336 10.4294 1.33337 9.20427V6.46238C1.33336 5.23721 1.33336 4.26678 1.43546 3.50731C1.54055 2.72569 1.76196 2.09306 2.26087 1.59415C2.75978 1.09524 3.39241 0.873832 4.17403 0.768747C4.9335 0.666638 5.90392 0.666646 7.1291 0.666657ZM11.9088 4.53036C12.616 3.8232 13.7625 3.8232 14.4697 4.53036C15.1768 5.23753 15.1768 6.38407 14.4697 7.09123L11.2995 10.2614C11.127 10.434 11.0103 10.5507 10.8796 10.6526C10.7259 10.7725 10.5595 10.8753 10.3835 10.9592C10.2339 11.0305 10.0773 11.0827 9.84585 11.1598L8.45677 11.6228C8.15008 11.7251 7.81196 11.6453 7.58337 11.4167C7.35477 11.1881 7.27495 10.8499 7.37718 10.5433L7.83089 9.18215C7.83403 9.17271 7.83714 9.1634 7.8402 9.1542C7.91731 8.92276 7.96948 8.76618 8.04079 8.61655C8.12468 8.44053 8.2275 8.27418 8.34742 8.12042C8.44935 7.98974 8.56606 7.87306 8.73856 7.7006C8.74543 7.69374 8.75238 7.68678 8.75943 7.67974L11.9088 4.53036ZM13.7626 5.23747C13.4459 4.92083 12.9325 4.92083 12.6159 5.23747L12.4947 5.35866C12.5013 5.38098 12.5088 5.40472 12.5175 5.42967C12.5802 5.61042 12.6992 5.8495 12.9249 6.07516C13.1505 6.30082 13.3896 6.41982 13.5704 6.48253C13.5953 6.49119 13.6191 6.49874 13.6414 6.50531L13.7626 6.38412C14.0792 6.06748 14.0792 5.55411 13.7626 5.23747ZM12.8777 7.26902C12.6657 7.15771 12.4369 7.00142 12.2178 6.78227C11.9986 6.56312 11.8423 6.33429 11.731 6.12237L9.46654 8.38684C9.26581 8.58757 9.19539 8.65921 9.13593 8.73545C9.06068 8.83193 8.99616 8.93632 8.94352 9.04677C8.90192 9.13406 8.86933 9.22908 8.77957 9.49838L8.51271 10.299L8.70106 10.4873L9.50165 10.2205C9.77095 10.1307 9.86598 10.0981 9.95326 10.0565C10.0637 10.0039 10.1681 9.93935 10.2646 9.8641C10.3408 9.80464 10.4125 9.73422 10.6132 9.53349L12.8777 7.26902ZM4.66671 5.83332C4.66671 5.55718 4.89057 5.33332 5.16671 5.33332H9.50004C9.77618 5.33332 10 5.55718 10 5.83332C10 6.10947 9.77618 6.33332 9.50004 6.33332H5.16671C4.89057 6.33332 4.66671 6.10947 4.66671 5.83332ZM4.66671 8.49999C4.66671 8.22385 4.89057 7.99999 5.16671 7.99999H6.83337C7.10952 7.99999 7.33337 8.22385 7.33337 8.49999C7.33337 8.77613 7.10952 8.99999 6.83337 8.99999H5.16671C4.89057 8.99999 4.66671 8.77613 4.66671 8.49999ZM4.66671 11.1667C4.66671 10.8905 4.89057 10.6667 5.16671 10.6667H6.16671C6.44285 10.6667 6.66671 10.8905 6.66671 11.1667C6.66671 11.4428 6.44285 11.6667 6.16671 11.6667H5.16671C4.89057 11.6667 4.66671 11.4428 4.66671 11.1667Z" fill="#6F767E"/>
</svg>
