<svg width="28" height="28" viewBox="0 0 28 28" fill="none" xmlns="http://www.w3.org/2000/svg">
<rect width="28" height="28" rx="8" fill="#33383F"/>
<g clip-path="url(#clip0_2218_10180)">
<path fill-rule="evenodd" clip-rule="evenodd" d="M5.9375 14C5.9375 9.5472 9.5472 5.9375 14 5.9375C14.3107 5.9375 14.5625 6.18934 14.5625 6.5C14.5625 6.81066 14.3107 7.0625 14 7.0625C10.1685 7.0625 7.0625 10.1685 7.0625 14C7.0625 17.8315 10.1685 20.9375 14 20.9375C17.8315 20.9375 20.9375 17.8315 20.9375 14C20.9375 13.6893 21.1893 13.4375 21.5 13.4375C21.8107 13.4375 22.0625 13.6893 22.0625 14C22.0625 18.4528 18.4528 22.0625 14 22.0625C9.5472 22.0625 5.9375 18.4528 5.9375 14ZM17.5779 6.70694C18.6038 5.68102 20.2671 5.68102 21.2931 6.70694C22.319 7.73285 22.319 9.39619 21.2931 10.4221L16.307 15.4082C16.0285 15.6867 15.8541 15.8611 15.6594 16.013C15.4302 16.1918 15.1821 16.3451 14.9196 16.4702C14.6968 16.5764 14.4627 16.6544 14.0891 16.7789L11.9107 17.505C11.5085 17.6391 11.0651 17.5344 10.7653 17.2347C10.4656 16.9349 10.3609 16.4915 10.495 16.0893L11.2211 13.9109C11.3456 13.5373 11.4236 13.3032 11.5298 13.0804C11.6549 12.8179 11.8082 12.5698 11.987 12.3406C12.1389 12.1459 12.3133 11.9715 12.5918 11.693L17.5779 6.70694ZM20.4976 7.50243C19.911 6.91586 18.96 6.91586 18.3734 7.50243L18.0909 7.7849C18.108 7.85679 18.1318 7.94245 18.1649 8.038C18.2724 8.34779 18.4758 8.75579 18.86 9.13999C19.2442 9.5242 19.6522 9.7276 19.962 9.83508C20.0575 9.86823 20.1432 9.89204 20.2151 9.90907L20.4976 9.62661C21.0841 9.04003 21.0841 8.08901 20.4976 7.50243ZM19.3289 10.7953C18.9419 10.6289 18.4911 10.3621 18.0645 9.93549C17.6379 9.50888 17.3711 9.05812 17.2047 8.67114L13.4131 12.4627C13.1007 12.7751 12.9782 12.899 12.8741 13.0325C12.7455 13.1973 12.6353 13.3757 12.5454 13.5644C12.4725 13.7172 12.4165 13.8822 12.2768 14.3013L11.9529 15.2731L12.7269 16.0471L13.6987 15.7232C14.1178 15.5835 14.2828 15.5275 14.4356 15.4546C14.6243 15.3647 14.8027 15.2545 14.9675 15.1259C15.101 15.0218 15.2249 14.8993 15.5373 14.5869L19.3289 10.7953Z" fill="#6F767E"/>
</g>
<defs>
<clipPath id="clip0_2218_10180">
<rect width="18" height="18" fill="white" transform="translate(5 5)"/>
</clipPath>
</defs>
</svg>
