<svg width="21" height="20" viewBox="0 0 21 20" fill="none" xmlns="http://www.w3.org/2000/svg">
<path d="M10.4923 2.44147C10.0323 2.44147 9.65898 2.8148 9.65898 3.2748V9.10813H3.82564C3.36564 9.10813 2.99231 9.48147 2.99231 9.94147C2.99231 10.4015 3.36564 10.7748 3.82564 10.7748H9.65898V16.6081C9.65898 17.0681 10.0323 17.4415 10.4923 17.4415C10.9523 17.4415 11.3256 17.0681 11.3256 16.6081V10.7748H17.159C17.619 10.7748 17.9923 10.4015 17.9923 9.94147C17.9923 9.48147 17.619 9.10813 17.159 9.10813H11.3256V3.2748C11.3256 2.8148 10.9523 2.44147 10.4923 2.44147Z" fill="#6F767E"/>
</svg>
