<svg width="17" height="17" viewBox="0 0 17 17" fill="none" xmlns="http://www.w3.org/2000/svg">
<path fill-rule="evenodd" clip-rule="evenodd" d="M7.79679 1.33334H9.20329C10.115 1.33333 10.8499 1.33332 11.4279 1.41103C12.0279 1.4917 12.5332 1.6643 12.9345 2.06558C13.1335 2.26456 13.2762 2.4891 13.3794 2.73809C14.0008 2.81593 14.5224 2.9869 14.9345 3.39895C15.3358 3.80022 15.5083 4.30547 15.589 4.90554C15.6667 5.48352 15.6667 6.2184 15.6667 7.13013V9.86996C15.6667 10.7817 15.6667 11.5166 15.589 12.0945C15.5083 12.6946 15.3358 13.1999 14.9345 13.6011C14.5224 14.0132 14.0007 14.1842 13.3794 14.262C13.2762 14.511 13.1334 14.7355 12.9345 14.9344C12.5332 15.3357 12.0279 15.5083 11.4279 15.589C10.8499 15.6667 10.115 15.6667 9.20329 15.6667H7.79679C6.88507 15.6667 6.15019 15.6667 5.57221 15.589C4.97214 15.5083 4.46689 15.3357 4.06561 14.9344C3.86665 14.7355 3.72391 14.511 3.62071 14.262C2.99934 14.1842 2.47766 14.0132 2.06561 13.6011C1.66433 13.1999 1.49173 12.6946 1.41106 12.0945C1.33335 11.5166 1.33336 10.7817 1.33337 9.86996V7.13013C1.33336 6.2184 1.33335 5.48352 1.41106 4.90554C1.49173 4.30547 1.66433 3.80022 2.06561 3.39895C2.47765 2.9869 2.99932 2.81593 3.62068 2.73809C3.72388 2.4891 3.86663 2.26456 4.06561 2.06558C4.46689 1.6643 4.97214 1.4917 5.57221 1.41103C6.15019 1.33332 6.88506 1.33333 7.79679 1.33334ZM3.38566 3.79366C3.09392 3.86397 2.91204 3.96672 2.77271 4.10605C2.58821 4.29056 2.46791 4.54961 2.40214 5.03879C2.33444 5.54236 2.33337 6.20977 2.33337 7.16671V9.83338C2.33337 10.7903 2.33444 11.4577 2.40214 11.9613C2.46791 12.4505 2.58821 12.7095 2.77271 12.894C2.91204 13.0334 3.09392 13.1361 3.38567 13.2064C3.33335 12.6656 3.33336 12.0024 3.33337 11.2033V5.79676C3.33336 4.99769 3.33335 4.33447 3.38566 3.79366ZM13.6144 13.2064C13.9062 13.1361 14.088 13.0334 14.2274 12.894C14.4119 12.7095 14.5322 12.4505 14.5979 11.9613C14.6656 11.4577 14.6667 10.7903 14.6667 9.83338V7.16671C14.6667 6.20977 14.6656 5.54236 14.5979 5.03879C14.5322 4.54961 14.4119 4.29056 14.2274 4.10605C14.088 3.96672 13.9062 3.86397 13.6144 3.79366C13.6667 4.33447 13.6667 4.9977 13.6667 5.79676V11.2033C13.6667 12.0024 13.6667 12.6656 13.6144 13.2064ZM5.70545 2.40211C5.21627 2.46788 4.95722 2.58818 4.77271 2.77268C4.58821 2.95719 4.46791 3.21624 4.40214 3.70542C4.33444 4.20899 4.33337 4.8764 4.33337 5.83334V11.1667C4.33337 12.1236 4.33444 12.791 4.40214 13.2946C4.46791 13.7838 4.58821 14.0428 4.77271 14.2273C4.95722 14.4118 5.21627 14.5321 5.70545 14.5979C6.20902 14.6656 6.87643 14.6667 7.83337 14.6667H9.16671C10.1237 14.6667 10.7911 14.6656 11.2946 14.5979C11.7838 14.5321 12.0429 14.4118 12.2274 14.2273C12.4119 14.0428 12.5322 13.7838 12.5979 13.2946C12.6656 12.791 12.6667 12.1236 12.6667 11.1667V5.83334C12.6667 4.8764 12.6656 4.20899 12.5979 3.70542C12.5322 3.21624 12.4119 2.95719 12.2274 2.77268C12.0429 2.58818 11.7838 2.46788 11.2946 2.40211C10.7911 2.33441 10.1237 2.33334 9.16671 2.33334H7.83337C6.87643 2.33334 6.20902 2.33441 5.70545 2.40211ZM6.00004 6.50001C6.00004 6.22387 6.2239 6.00001 6.50004 6.00001H10.5C10.7762 6.00001 11 6.22387 11 6.50001C11 6.77615 10.7762 7.00001 10.5 7.00001H6.50004C6.2239 7.00001 6.00004 6.77615 6.00004 6.50001ZM6.00004 9.16668C6.00004 8.89053 6.2239 8.66668 6.50004 8.66668H10.5C10.7762 8.66668 11 8.89053 11 9.16668C11 9.44282 10.7762 9.66668 10.5 9.66668H6.50004C6.2239 9.66668 6.00004 9.44282 6.00004 9.16668ZM6.00004 11.8333C6.00004 11.5572 6.2239 11.3333 6.50004 11.3333H8.50004C8.77618 11.3333 9.00004 11.5572 9.00004 11.8333C9.00004 12.1095 8.77618 12.3333 8.50004 12.3333H6.50004C6.2239 12.3333 6.00004 12.1095 6.00004 11.8333Z" fill="#6F767E"/>
</svg>
