<svg width="10" height="24" viewBox="0 0 10 24" fill="none" xmlns="http://www.w3.org/2000/svg">
<path d="M10 4C10 2.895 9.105 2 8 2C6.895 2 6 2.895 6 4C6 5.105 6.895 6 8 6C9.105 6 10 5.105 10 4ZM10 12C10 10.895 9.105 10 8 10C6.895 10 6 10.895 6 12C6 13.105 6.895 14 8 14C9.105 14 10 13.105 10 12ZM10 20C10 18.895 9.105 18 8 18C6.895 18 6 18.895 6 20C6 21.105 6.895 22 8 22C9.105 22 10 21.105 10 20Z" fill="#6F767E" fill-opacity="0.3"/>
<path d="M4 4C4 2.895 3.105 2 2 2C0.895001 2 1.00995e-06 2.895 9.6165e-07 4C9.13349e-07 5.105 0.895001 6 2 6C3.105 6 4 5.105 4 4ZM4 12C4 10.895 3.105 10 2 10C0.895001 10 6.6026e-07 10.895 6.11959e-07 12C5.63658e-07 13.105 0.895001 14 2 14C3.105 14 4 13.105 4 12ZM4 20C4 18.895 3.105 18 2 18C0.895 18 3.10569e-07 18.895 2.62268e-07 20C2.13967e-07 21.105 0.895 22 2 22C3.105 22 4 21.105 4 20Z" fill="#6F767E" fill-opacity="0.3"/>
</svg>
