<svg width="25" height="24" viewBox="0 0 25 24" fill="none" xmlns="http://www.w3.org/2000/svg">
<path fill-rule="evenodd" clip-rule="evenodd" d="M22.0394 15.694C22.0394 15.694 22.0799 17.1342 22.0394 17.2778C21.8386 17.9902 21.52 18.5975 21.0088 19.1088C20.2604 19.8571 19.3114 20.1892 18.139 20.3469C16.9998 20.5 15.5442 20.5 13.7064 20.5H11.5936C9.75582 20.5 8.30019 20.5 7.16097 20.3469C5.98855 20.1892 5.0396 19.8571 4.29124 19.1088C3.54287 18.3604 3.21076 17.4114 3.05313 16.239C2.89997 15.0998 2.89998 13.6442 2.89999 11.8064V11.6936C2.89998 9.85583 2.89997 8.40019 3.05313 7.26098C3.21076 6.08856 3.54287 5.13961 4.29124 4.39124C5.0396 3.64288 5.98855 3.31076 7.16097 3.15314C8.30019 2.99997 9.75582 2.99998 11.5936 3L13.7064 3C15.5442 2.99998 16.9998 2.99997 18.139 3.15314C19.3114 3.31076 20.2604 3.64288 21.0088 4.39124C21.52 4.90252 21.8386 5.50974 22.0394 6.22218C22.0394 6.41016 22.0394 7 22.0394 7V9.82501C22.0394 9.82501 22.0394 8.79732 22.0394 11.8064C22.0394 14.8155 22.0394 14.6793 22.0394 14.6793L22.0394 15.694ZM6.64999 7C6.23578 7 5.89999 7.33579 5.89999 7.75C5.89999 8.16421 6.23578 8.5 6.64999 8.5H10.65C11.0642 8.5 11.4 8.16421 11.4 7.75C11.4 7.33579 11.0642 7 10.65 7H6.64999Z" fill="#AFB3BE"/>
<path fill-rule="evenodd" clip-rule="evenodd" d="M22.0009 8.00353C21.9442 7.99996 21.8826 7.99998 21.8186 8L21.8026 8.00001H19.2941C17.2265 8.00001 15.4572 9.62757 15.4572 11.75C15.4572 13.8724 17.2265 15.5 19.2941 15.5H21.8026L21.8186 15.5C21.8826 15.5 21.9442 15.5001 22.0009 15.4965C22.8408 15.4434 23.5835 14.7862 23.646 13.8682C23.6501 13.808 23.6501 13.7431 23.65 13.683L23.65 13.6667V9.83334L23.65 9.81702C23.6501 9.75688 23.6501 9.69199 23.646 9.6318C23.5835 8.7138 22.8408 8.05657 22.0009 8.00353ZM19.0717 12.75C19.604 12.75 20.0356 12.3023 20.0356 11.75C20.0356 11.1977 19.604 10.75 19.0717 10.75C18.5394 10.75 18.1078 11.1977 18.1078 11.75C18.1078 12.3023 18.5394 12.75 19.0717 12.75Z" fill="#6F767E"/>
</svg>
